<svg width="48" height="48" viewBox="0 0 48 48" fill="none" xmlns="http://www.w3.org/2000/svg">
<g id="vuesax/linear/cloud-add">
<g id="cloud-add">
<g id="Group">
<path id="Vector" d="M11.0799 22.24C1.71994 22.9 1.71994 36.52 11.0799 37.18H14.92" stroke="white" stroke-width="2.5" stroke-miterlimit="10" stroke-linecap="round" stroke-linejoin="round"/>
<path id="Vector_2" d="M11.1801 22.24C4.76006 4.37998 31.8399 -2.76001 34.9399 16C43.5999 17.1 47.1 28.64 40.54 34.38C38.54 36.2 35.96 37.2 33.26 37.18H33.08" stroke="white" stroke-width="2.5" stroke-miterlimit="10" stroke-linecap="round" stroke-linejoin="round"/>
</g>
<path id="Vector_3" d="M34 33.06C34 34.54 33.68 35.94 33.08 37.18C32.92 37.54 32.74 37.88 32.54 38.2C30.82 41.1 27.64 43.06 24 43.06C20.36 43.06 17.18 41.1 15.46 38.2C15.26 37.88 15.08 37.54 14.92 37.18C14.32 35.94 14 34.54 14 33.06C14 27.54 18.48 23.06 24 23.06C29.52 23.06 34 27.54 34 33.06Z" stroke="white" stroke-width="2.5" stroke-miterlimit="10" stroke-linecap="round" stroke-linejoin="round"/>
<path id="Vector_4" d="M20.88 33.06L22.86 35.04L27.12 31.1" stroke="white" stroke-width="2.5" stroke-linecap="round" stroke-linejoin="round"/>
</g>
</g>
</svg>
