<svg width="24" height="25" viewBox="0 0 24 25" fill="none" xmlns="http://www.w3.org/2000/svg">
<g id="vuesax/bold/document-text">
<g id="document-text">
<path id="Vector" d="M16 2.74286H8C4.5 2.74286 3 4.68572 3 7.6V17.3143C3 20.2286 4.5 22.1714 8 22.1714H16C19.5 22.1714 21 20.2286 21 17.3143V7.6C21 4.68572 19.5 2.74286 16 2.74286ZM8 12.7H12C12.41 12.7 12.75 13.0303 12.75 13.4286C12.75 13.8269 12.41 14.1571 12 14.1571H8C7.59 14.1571 7.25 13.8269 7.25 13.4286C7.25 13.0303 7.59 12.7 8 12.7ZM16 18.0429H8C7.59 18.0429 7.25 17.7126 7.25 17.3143C7.25 16.916 7.59 16.5857 8 16.5857H16C16.41 16.5857 16.75 16.916 16.75 17.3143C16.75 17.7126 16.41 18.0429 16 18.0429ZM18.5 9.78572H16.5C14.98 9.78572 13.75 8.59086 13.75 7.11429V5.17143C13.75 4.77314 14.09 4.44286 14.5 4.44286C14.91 4.44286 15.25 4.77314 15.25 5.17143V7.11429C15.25 7.78457 15.81 8.32857 16.5 8.32857H18.5C18.91 8.32857 19.25 8.65886 19.25 9.05714C19.25 9.45543 18.91 9.78572 18.5 9.78572Z" fill="#36405C"/>
</g>
</g>
</svg>
