<svg width="166" height="123" viewBox="0 0 166 123" fill="none" xmlns="http://www.w3.org/2000/svg">
<g id="Group 289068">
<g id="#00969eff">
<path id="Vector" d="M103.696 91.5278C89.9538 101.951 76.4503 112.672 62.6484 123C62.7917 101.987 62.6484 80.9615 62.72 59.9481C76.3906 70.4667 90.0493 80.9853 103.696 91.5278Z" fill="#36405C" fill-opacity="0.05"/>
</g>
<g id="#36405cff">
<path id="Vector_2" d="M41.264 111.431C27.5934 100.948 14.0064 90.3697 0.300023 79.9347C13.7796 69.1296 27.6412 58.8139 41.264 48.1759C41.2521 69.2609 41.264 90.3458 41.264 111.431Z" fill="#36405C" fill-opacity="0.05"/>
</g>
<g id="#99c93dff">
<path id="Vector_3" d="M166.174 43.388C152.444 53.8827 138.797 64.4968 125.079 75.0035C125.138 53.9305 125.091 32.8575 125.103 11.7725C138.773 22.3389 152.432 32.9172 166.174 43.388Z" fill="#36405C" fill-opacity="0.05"/>
</g>
<g id="#38b24aff">
<path id="Vector_4" d="M103.647 0.0605774C103.671 21.1694 103.683 42.2663 103.647 63.3632C90.0362 52.7252 76.2463 42.2902 62.6234 31.6522C76.3656 21.2052 90.0243 10.6508 103.647 0.0605774Z" fill="#36405C" fill-opacity="0.05"/>
</g>
</g>
</svg>
