<svg width="32" height="32" viewBox="0 0 32 32" fill="none" xmlns="http://www.w3.org/2000/svg">
<g id="icons8-linkedin 1">
<path id="Vector" d="M26.24 2.56006H5.76C3.9936 2.56006 2.56 3.99366 2.56 5.76006V26.2401C2.56 28.0065 3.9936 29.4401 5.76 29.4401H26.24C28.0064 29.4401 29.44 28.0065 29.44 26.2401V5.76006C29.44 3.99366 28.0064 2.56006 26.24 2.56006ZM10.88 12.8001V24.9601H7.04V12.8001H10.88ZM7.04 9.26086C7.04 8.36486 7.808 7.68006 8.96 7.68006C10.112 7.68006 10.8352 8.36486 10.88 9.26086C10.88 10.1569 10.1632 10.8801 8.96 10.8801C7.808 10.8801 7.04 10.1569 7.04 9.26086ZM24.96 24.9601H21.12C21.12 24.9601 21.12 19.0337 21.12 18.5601C21.12 17.2801 20.48 16.0001 18.88 15.9745H18.8288C17.28 15.9745 16.64 17.2929 16.64 18.5601C16.64 19.1425 16.64 24.9601 16.64 24.9601H12.8V12.8001H16.64V14.4385C16.64 14.4385 17.8752 12.8001 20.3584 12.8001C22.8992 12.8001 24.96 14.5473 24.96 18.0865V24.9601Z" fill="#36405C" fill-opacity="0.25"/>
</g>
</svg>
