<svg width="180" height="67" viewBox="0 0 180 67" fill="none" xmlns="http://www.w3.org/2000/svg">
<path d="M19.7017 9.92431C24.0351 6.63754 28.2932 3.25665 32.6455 0C32.6003 6.62624 32.6455 13.2563 32.6229 19.8825C28.3121 16.5656 24.005 13.2487 19.7017 9.92431Z" fill="#428DFE"/>
<path d="M39.3885 3.64819C43.6993 6.95379 47.9838 10.2895 52.3059 13.58C48.0553 16.9873 43.6843 20.2402 39.3885 23.5947C39.3923 16.9459 39.3885 10.297 39.3885 3.64819Z" fill="#36405C"/>
<path d="M0 25.1044C4.32965 21.7951 8.63294 18.4481 12.9588 15.1349C12.94 21.78 12.9551 28.4251 12.9513 35.0739C8.64047 31.742 4.33341 28.4063 0 25.1044Z" fill="#99C93D"/>
<path d="M19.7168 38.7673C19.7093 32.1109 19.7056 25.4583 19.7168 18.8057C24.0088 22.1603 28.3573 25.4508 32.6531 28.8053C28.3197 32.0996 24.0126 35.4278 19.7168 38.7673Z" fill="#38B24A"/>
<path d="M91.1658 15.2989C94.3961 13.1266 98.4434 12.7689 102.235 12.8705C105.762 12.9458 109.55 13.5708 112.321 15.9239C114.049 17.3621 114.919 19.5834 115.024 21.7896C112.392 21.8122 109.757 21.8009 107.122 21.7971C106.628 19.7039 104.561 18.4652 102.54 18.2468C100.537 18.0586 98.3605 18.1565 96.6212 19.2747C94.0234 21.0103 93.726 24.8844 95.1491 27.4596C96.768 30.0837 100.277 30.351 103.04 29.9444C105.077 29.6771 106.817 28.0431 107.091 25.9837C109.734 25.9724 112.377 25.98 115.024 25.98C115.111 28.8262 113.657 31.6499 111.218 33.1408C107.554 35.4374 103.04 35.524 98.8575 35.332C95.4766 35.0798 91.8887 34.1084 89.5168 31.5407C87.1637 28.9618 86.7232 25.2006 87.1938 21.8649C87.5402 19.2558 88.937 16.7522 91.1658 15.2989Z" fill="#36405C"/>
<path d="M156.494 14.7455C159.424 13.0701 162.925 12.8931 166.227 12.863C169.668 12.8668 173.316 12.9872 176.407 14.6777C178.286 15.6905 179.235 17.844 179.265 19.9109C176.731 19.8921 174.197 19.9109 171.667 19.8996C171.294 18.6421 170.199 17.7536 168.904 17.5917C167.149 17.2981 165.331 17.3018 163.576 17.5691C162.564 17.7084 161.37 18.4539 161.622 19.6361C161.89 20.4945 162.853 20.6865 163.629 20.822C166.987 21.2136 170.368 21.3642 173.726 21.7595C175.711 22.0645 177.853 22.7572 179.039 24.4966C180.157 26.2623 180.195 28.5288 179.686 30.5054C179.186 32.3954 177.518 33.7244 175.733 34.3494C173.166 35.2266 170.421 35.3546 167.733 35.3885C164.743 35.4035 161.701 35.4224 158.802 34.6016C157.04 34.0933 155.316 33.0806 154.405 31.4353C153.746 30.2945 153.562 28.9655 153.46 27.6742C156.016 27.6553 158.569 27.6704 161.129 27.6629C161.419 28.958 162.255 30.1891 163.64 30.4414C166.087 30.9647 168.787 31.0701 171.155 30.1741C172.601 29.6169 172.379 27.3203 170.85 27.053C167.085 26.3037 163.196 26.3753 159.424 25.6637C157.541 25.242 155.44 24.4514 154.574 22.5802C153.426 19.9674 153.882 16.3192 156.494 14.7455Z" fill="#36405C"/>
<path d="M57.4209 13.5181C60.0375 13.5106 62.6541 13.5106 65.2707 13.5181C69.0846 17.972 72.8984 22.4259 76.7424 26.8572C76.8177 22.4033 76.7123 17.9532 76.7951 13.4993C78.9072 13.5294 81.0194 13.5068 83.1352 13.5144C83.1352 20.5962 83.1352 27.6742 83.1352 34.7522C80.5826 34.756 78.0338 34.7522 75.4849 34.756C71.5544 30.2607 67.7179 25.6826 63.7798 21.1948C63.7497 25.7127 63.7723 30.2306 63.7685 34.7522C61.6677 34.756 59.5669 34.756 57.4661 34.7522C57.4435 27.6742 57.5226 20.5962 57.4209 13.5181Z" fill="#36405C"/>
<path d="M118.974 34.7598C118.962 27.6742 118.94 20.5886 118.985 13.5068C122.453 13.5257 125.924 13.5068 129.395 13.5144C131.134 17.7574 132.622 22.1097 134.496 26.2962C136.134 22.0344 137.753 17.7687 139.406 13.5144C142.945 13.5144 146.484 13.5106 150.019 13.5181C150.015 20.5999 150.019 27.6817 150.023 34.7598C147.82 34.7522 145.622 34.7447 143.423 34.7673C143.34 29.6922 143.464 24.6209 143.359 19.5458C141.142 24.5757 139.15 29.7035 136.996 34.756C135.276 34.7522 133.559 34.7485 131.838 34.7598C129.621 29.6545 127.618 24.4514 125.329 19.3763C125.246 24.5004 125.321 29.6282 125.295 34.7522C123.187 34.7598 121.082 34.7485 118.974 34.7598Z" fill="#36405C"/>
<path d="M11.19 51.77V52.98C11.19 52.99 11.14 53 11.03 53H7.46C5.73 53 4.59 52.01 4.59 50.45C4.59 48.89 5.68 47.9 7.32 47.9C8.16 47.9 8.99 48.16 9.51 48.45V51.77H11.19ZM7.29 51.77H8.32V49.27C8.01 49.1 7.64 49.02 7.23 49.02C6.39 49.02 5.77 49.5 5.77 50.41C5.77 51.29 6.37 51.77 7.29 51.77ZM5.63 46.31C5.63 45.91 5.95 45.59 6.36 45.59C6.75 45.59 7.07 45.91 7.07 46.31C7.07 46.71 6.75 47.03 6.36 47.03C5.95 47.03 5.63 46.71 5.63 46.31ZM7.6 46.31C7.6 45.91 7.91 45.59 8.31 45.59C8.71 45.59 9.03 45.91 9.03 46.31C9.03 46.71 8.71 47.03 8.31 47.03C7.91 47.03 7.6 46.71 7.6 46.31ZM15.3113 51.77H15.4713V52.98C15.4713 52.99 15.4213 53 15.3113 53H15.3013C14.5313 53 13.8213 52.82 13.1713 52.45C12.5313 52.82 11.8213 53 11.0413 53H11.0312C10.9212 53 10.8712 52.99 10.8712 52.98V51.77H11.0312C11.6413 51.77 12.1513 51.66 12.5813 51.45V48H13.7713V51.45C14.1713 51.66 14.7413 51.77 15.3113 51.77ZM11.4913 54.45C11.4913 54.04 11.8113 53.73 12.2213 53.73C12.6213 53.73 12.9313 54.05 12.9313 54.45C12.9313 54.84 12.6113 55.16 12.2213 55.16C11.8113 55.16 11.4913 54.84 11.4913 54.45ZM13.4613 54.45C13.4613 54.04 13.7713 53.73 14.1713 53.73C14.5713 53.73 14.8913 54.04 14.8913 54.45C14.8913 54.84 14.5713 55.16 14.1713 55.16C13.7713 55.16 13.4613 54.84 13.4613 54.45ZM21.6886 51.77H21.8486V52.98C21.8486 52.99 21.7986 53 21.6886 53H21.6786C21.0886 53 20.5186 52.86 19.9886 52.59C19.2386 52.86 18.2786 53 17.3986 53H15.3086C15.1986 53 15.1486 52.99 15.1486 52.98V51.77H17.5286C18.2386 51.77 18.9086 51.63 19.3386 51.44V51.06C19.2986 50.19 19.0086 49.98 17.4886 49.54L16.2686 49.21L15.9986 48.26L19.5986 45.48L20.2186 46.25L17.4186 48.38L18.0386 48.55C19.8186 49.06 20.4886 49.51 20.5286 51.02V51.51C20.7986 51.67 21.2486 51.77 21.6886 51.77ZM25.9655 51.77H26.1255V52.98C26.1255 52.99 26.0755 53 25.9655 53H25.9555C25.1855 53 24.4755 52.82 23.8255 52.45C23.1855 52.82 22.4755 53 21.6955 53H21.6855C21.5755 53 21.5255 52.99 21.5255 52.98V51.77H21.6855C22.2955 51.77 22.8055 51.66 23.2355 51.45V48H24.4255V51.45C24.8255 51.66 25.3955 51.77 25.9655 51.77ZM22.1455 54.45C22.1455 54.04 22.4655 53.73 22.8755 53.73C23.2755 53.73 23.5855 54.05 23.5855 54.45C23.5855 54.84 23.2655 55.16 22.8755 55.16C22.4655 55.16 22.1455 54.84 22.1455 54.45ZM24.1155 54.45C24.1155 54.04 24.4255 53.73 24.8255 53.73C25.2255 53.73 25.5455 54.04 25.5455 54.45C25.5455 54.84 25.2255 55.16 24.8255 55.16C24.4255 55.16 24.1155 54.84 24.1155 54.45ZM28.7029 48V52.27C28.4029 52.48 28.0029 52.65 27.5129 52.79C27.0229 52.93 26.5029 53 25.9729 53H25.9629C25.8529 53 25.8029 52.99 25.8029 52.98V51.77H25.9629C26.5729 51.77 27.1629 51.67 27.5129 51.51V48H28.7029ZM27.3429 46.38C27.3429 45.97 27.6629 45.65 28.0729 45.65C28.4729 45.65 28.7929 45.97 28.7929 46.38C28.7929 46.78 28.4729 47.1 28.0729 47.1C27.6629 47.1 27.3429 46.78 27.3429 46.38ZM33.3555 51.77H33.5155V52.98C33.5155 52.99 33.4655 53 33.3555 53H33.3455C32.4655 53 31.6655 52.78 31.0955 52.46C30.7355 52.27 30.6155 52.07 30.6155 51.64V45.7H31.8055V51.45C32.2155 51.66 32.7855 51.77 33.3555 51.77ZM39.7355 51.77H39.8955V52.98C39.8955 52.99 39.8455 53 39.7355 53H39.7255C39.1355 53 38.5655 52.86 38.0355 52.59C37.2855 52.86 36.3255 53 35.4455 53H33.3555C33.2455 53 33.1955 52.99 33.1955 52.98V51.77H35.5755C36.2855 51.77 36.9555 51.63 37.3855 51.44V51.06C37.3455 50.19 37.0555 49.98 35.5355 49.54L34.3155 49.21L34.0455 48.26L37.6455 45.48L38.2655 46.25L35.4655 48.38L36.0855 48.55C37.8655 49.06 38.5355 49.51 38.5755 51.02V51.51C38.8455 51.67 39.2955 51.77 39.7355 51.77ZM44.0124 51.77H44.1724V52.98C44.1724 52.99 44.1224 53 44.0124 53H44.0024C43.2324 53 42.5224 52.82 41.8724 52.45C41.2324 52.82 40.5224 53 39.7424 53H39.7324C39.6224 53 39.5724 52.99 39.5724 52.98V51.77H39.7324C40.3424 51.77 40.8524 51.66 41.2824 51.45V48H42.4724V51.45C42.8724 51.66 43.4424 51.77 44.0124 51.77ZM40.1924 54.45C40.1924 54.04 40.5124 53.73 40.9224 53.73C41.3224 53.73 41.6324 54.05 41.6324 54.45C41.6324 54.84 41.3124 55.16 40.9224 55.16C40.5124 55.16 40.1924 54.84 40.1924 54.45ZM42.1624 54.45C42.1624 54.04 42.4724 53.73 42.8724 53.73C43.2724 53.73 43.5924 54.04 43.5924 54.45C43.5924 54.84 43.2724 55.16 42.8724 55.16C42.4724 55.16 42.1624 54.84 42.1624 54.45ZM51.4298 51.77H51.5898V52.98C51.5898 52.99 51.5398 53 51.4298 53H51.4198C50.7898 53 50.2098 52.86 49.6998 52.58C49.2498 53.15 48.5298 53.5 47.7198 53.5C46.9098 53.5 46.1898 53.15 45.7398 52.58C45.2298 52.86 44.6498 53 44.0198 53H44.0098C43.8998 53 43.8498 52.99 43.8498 52.98V51.77H44.0098C44.4898 51.77 44.8998 51.7 45.2498 51.55C45.1998 51.36 45.1798 51.14 45.1798 50.9C45.1798 49.4 46.2498 48.3 47.7198 48.3C49.1898 48.3 50.2498 49.4 50.2498 50.9C50.2498 51.14 50.2298 51.35 50.1798 51.54C50.5198 51.69 50.9398 51.77 51.4298 51.77ZM49.0698 50.9C49.0698 50.06 48.5298 49.45 47.6998 49.45C46.8998 49.45 46.3598 50.06 46.3598 50.9C46.3598 51.74 46.8998 52.35 47.6998 52.35C48.5298 52.35 49.0698 51.74 49.0698 50.9ZM54.1716 45.7V51.96C53.5716 52.56 52.5316 53 51.4416 53H51.4316C51.3216 53 51.2716 52.99 51.2716 52.98V51.77H51.4316C51.9916 51.77 52.5816 51.66 52.9816 51.45V45.7H54.1716ZM56.1916 53V45.7H57.3816V53H56.1916ZM68.0845 51.77V52.98C68.0845 52.99 68.0345 53 67.9245 53H64.3545C62.6245 53 61.4845 52.01 61.4845 50.45C61.4845 48.89 62.5745 47.9 64.2145 47.9C65.0545 47.9 65.8845 48.16 66.4045 48.45V51.77H68.0845ZM64.1845 51.77H65.2145V49.27C64.9045 49.1 64.5345 49.02 64.1245 49.02C63.2845 49.02 62.6645 49.5 62.6645 50.41C62.6645 51.29 63.2645 51.77 64.1845 51.77ZM62.5245 46.31C62.5245 45.91 62.8445 45.59 63.2545 45.59C63.6445 45.59 63.9645 45.91 63.9645 46.31C63.9645 46.71 63.6445 47.03 63.2545 47.03C62.8445 47.03 62.5245 46.71 62.5245 46.31ZM64.4945 46.31C64.4945 45.91 64.8045 45.59 65.2045 45.59C65.6045 45.59 65.9245 45.91 65.9245 46.31C65.9245 46.71 65.6045 47.03 65.2045 47.03C64.8045 47.03 64.4945 46.71 64.4945 46.31ZM75.3458 51.77H75.5058V52.98C75.5058 52.99 75.4558 53 75.3458 53H75.3358C74.7058 53 74.1258 52.86 73.6158 52.58C73.1658 53.15 72.4458 53.5 71.6358 53.5C70.8258 53.5 70.1058 53.15 69.6558 52.58C69.1458 52.86 68.5658 53 67.9358 53H67.9258C67.8158 53 67.7658 52.99 67.7658 52.98V51.77H67.9258C68.4058 51.77 68.8158 51.7 69.1658 51.55C69.1158 51.36 69.0958 51.14 69.0958 50.9C69.0958 49.4 70.1658 48.3 71.6358 48.3C73.1058 48.3 74.1658 49.4 74.1658 50.9C74.1658 51.14 74.1458 51.35 74.0958 51.54C74.4358 51.69 74.8558 51.77 75.3458 51.77ZM72.9858 50.9C72.9858 50.06 72.4458 49.45 71.6158 49.45C70.8158 49.45 70.2758 50.06 70.2758 50.9C70.2758 51.74 70.8158 52.35 71.6158 52.35C72.4458 52.35 72.9858 51.74 72.9858 50.9ZM85.6877 51.77V52.98C85.6877 52.99 85.6377 53 85.5277 53H75.3477C75.2377 53 75.1877 52.99 75.1877 52.98V51.77H76.8977V45.83H78.0877V49.58C79.3177 48.31 80.3677 47.67 81.5777 47.67C82.3277 47.67 82.9277 47.91 83.3777 48.38C83.8377 48.85 84.0677 49.54 84.0677 50.43V51.77H85.6877ZM78.0877 51.77H82.8877V50.62C82.8877 50.11 82.7677 49.68 82.5277 49.34C82.2977 49 81.9077 48.83 81.3777 48.83C80.3677 48.83 79.3777 49.52 78.0877 51.04V51.77ZM79.5977 45.9C79.5977 45.49 79.9177 45.17 80.3277 45.17C80.7277 45.17 81.0477 45.49 81.0477 45.9C81.0477 46.3 80.7277 46.62 80.3277 46.62C79.9177 46.62 79.5977 46.3 79.5977 45.9ZM88.2634 48V52.27C87.9634 52.48 87.5634 52.65 87.0734 52.79C86.5834 52.93 86.0634 53 85.5334 53H85.5234C85.4134 53 85.3634 52.99 85.3634 52.98V51.77H85.5234C86.1334 51.77 86.7234 51.67 87.0734 51.51V48H88.2634ZM86.9034 46.38C86.9034 45.97 87.2234 45.65 87.6334 45.65C88.0334 45.65 88.3534 45.97 88.3534 46.38C88.3534 46.78 88.0334 47.1 87.6334 47.1C87.2234 47.1 86.9034 46.78 86.9034 46.38ZM91.986 45.46V46.24H89.876V45.46H90.356C90.206 45.29 90.126 45.09 90.126 44.86C90.126 44.34 90.516 43.95 91.076 43.95C91.396 43.95 91.676 44.06 91.906 44.28L91.466 44.75C91.386 44.67 91.286 44.63 91.156 44.63C90.926 44.63 90.776 44.78 90.776 45.01C90.776 45.28 90.976 45.46 91.406 45.46H91.986ZM97.066 51.77H97.226V52.98C97.226 52.99 97.176 53 97.066 53H97.056C96.256 53 95.506 52.77 94.936 52.4C94.326 52.76 93.576 53 92.786 53H89.716V51.77H91.636L90.536 46.98H91.716L92.836 51.77C93.466 51.76 93.956 51.63 94.306 51.39V45.7H95.496V51.38C95.866 51.64 96.396 51.77 97.066 51.77ZM99.8064 45.7V51.96C99.2064 52.56 98.1664 53 97.0764 53H97.0664C96.9564 53 96.9064 52.99 96.9064 52.98V51.77H97.0664C97.6264 51.77 98.2164 51.66 98.6164 51.45V45.7H99.8064ZM110.506 51.77V52.98C110.506 52.99 110.456 53 110.346 53H106.776C105.046 53 103.906 52.01 103.906 50.45C103.906 48.89 104.996 47.9 106.636 47.9C107.476 47.9 108.306 48.16 108.826 48.45V51.77H110.506ZM106.606 51.77H107.636V49.27C107.326 49.1 106.956 49.02 106.546 49.02C105.706 49.02 105.086 49.5 105.086 50.41C105.086 51.29 105.686 51.77 106.606 51.77ZM104.946 46.31C104.946 45.91 105.266 45.59 105.676 45.59C106.066 45.59 106.386 45.91 106.386 46.31C106.386 46.71 106.066 47.03 105.676 47.03C105.266 47.03 104.946 46.71 104.946 46.31ZM106.916 46.31C106.916 45.91 107.226 45.59 107.626 45.59C108.026 45.59 108.346 45.91 108.346 46.31C108.346 46.71 108.026 47.03 107.626 47.03C107.226 47.03 106.916 46.71 106.916 46.31ZM114.628 51.77H114.788V52.98C114.788 52.99 114.738 53 114.628 53H114.618C113.848 53 113.138 52.82 112.488 52.45C111.848 52.82 111.138 53 110.358 53H110.348C110.238 53 110.188 52.99 110.188 52.98V51.77H110.348C110.958 51.77 111.468 51.66 111.898 51.45V48H113.088V51.45C113.488 51.66 114.058 51.77 114.628 51.77ZM110.808 54.45C110.808 54.04 111.128 53.73 111.538 53.73C111.938 53.73 112.248 54.05 112.248 54.45C112.248 54.84 111.928 55.16 111.538 55.16C111.128 55.16 110.808 54.84 110.808 54.45ZM112.778 54.45C112.778 54.04 113.088 53.73 113.488 53.73C113.888 53.73 114.208 54.04 114.208 54.45C114.208 54.84 113.888 55.16 113.488 55.16C113.088 55.16 112.778 54.84 112.778 54.45ZM118.905 51.77H119.065V52.98C119.065 52.99 119.015 53 118.905 53H118.895C118.125 53 117.415 52.82 116.765 52.45C116.125 52.82 115.415 53 114.635 53H114.625C114.515 53 114.465 52.99 114.465 52.98V51.77H114.625C115.235 51.77 115.745 51.66 116.175 51.45V48H117.365V51.45C117.765 51.66 118.335 51.77 118.905 51.77ZM116.055 46.38C116.055 45.97 116.375 45.65 116.785 45.65C117.185 45.65 117.505 45.97 117.505 46.38C117.505 46.78 117.185 47.1 116.785 47.1C116.375 47.1 116.055 46.78 116.055 46.38ZM127.622 50.43V53H118.902C118.792 53 118.742 52.99 118.742 52.98V51.77H120.452V45.83H121.642V49.58C122.872 48.31 123.922 47.67 125.132 47.67C125.882 47.67 126.482 47.91 126.932 48.38C127.392 48.85 127.622 49.54 127.622 50.43ZM121.642 51.77H126.442V50.62C126.442 50.11 126.322 49.68 126.082 49.34C125.852 49 125.462 48.83 124.932 48.83C123.922 48.83 122.932 49.52 121.642 51.04V51.77ZM135.702 51.77V52.98C135.702 52.99 135.652 53 135.542 53H134.012C133.892 54.79 132.772 55.6 131.062 55.6C130.472 55.6 129.812 55.5 129.282 55.31L129.492 54.18C129.882 54.33 130.512 54.46 131.102 54.46C132.252 54.46 132.762 53.99 132.832 53H131.962C130.152 53 129.082 52 129.082 50.56C129.082 49.09 130.152 48.09 131.822 48.09C132.552 48.09 133.292 48.27 134.022 48.64V51.77H135.702ZM131.772 51.77H132.832V49.45C132.482 49.28 132.122 49.2 131.752 49.2C130.882 49.2 130.262 49.66 130.262 50.49C130.262 51.3 130.882 51.77 131.772 51.77ZM138.283 45.7V51.96C137.683 52.56 136.643 53 135.553 53H135.543C135.433 53 135.383 52.99 135.383 52.98V51.77H135.543C136.103 51.77 136.693 51.66 137.093 51.45V45.7H138.283ZM140.303 53V45.7H141.493V53H140.303ZM152.196 51.77V52.98C152.196 52.99 152.146 53 152.036 53H148.466C146.736 53 145.596 52.01 145.596 50.45C145.596 48.89 146.686 47.9 148.326 47.9C149.166 47.9 149.996 48.16 150.516 48.45V51.77H152.196ZM148.296 51.77H149.326V49.27C149.016 49.1 148.646 49.02 148.236 49.02C147.396 49.02 146.776 49.5 146.776 50.41C146.776 51.29 147.376 51.77 148.296 51.77ZM146.636 46.31C146.636 45.91 146.956 45.59 147.366 45.59C147.756 45.59 148.076 45.91 148.076 46.31C148.076 46.71 147.756 47.03 147.366 47.03C146.956 47.03 146.636 46.71 146.636 46.31ZM148.606 46.31C148.606 45.91 148.916 45.59 149.316 45.59C149.716 45.59 150.036 45.91 150.036 46.31C150.036 46.71 149.716 47.03 149.316 47.03C148.916 47.03 148.606 46.71 148.606 46.31ZM157.257 51.02V52.35C156.867 52.56 156.387 52.72 155.817 52.83C155.247 52.94 154.687 53 154.127 53H152.037C151.927 53 151.877 52.99 151.877 52.98V51.77H154.257C154.967 51.77 155.637 51.63 156.067 51.44V51.06C156.017 50.18 155.747 49.99 154.217 49.54L152.997 49.21L152.727 48.26L156.327 45.48L156.947 46.25L154.147 48.38L154.767 48.55C156.547 49.06 157.217 49.51 157.257 51.02ZM162.208 51.77H162.368V52.98C162.368 52.99 162.318 53 162.208 53H162.198C161.648 53 161.128 52.9 160.638 52.69C160.628 54.7 159.628 55.6 157.918 55.6C157.668 55.6 157.428 55.58 157.218 55.55L157.448 54.36C157.598 54.38 157.738 54.39 157.878 54.39C159.008 54.39 159.448 53.84 159.448 52.68V48.13H160.638V51.4C161.028 51.65 161.548 51.77 162.208 51.77ZM172.903 51.77H173.063V52.98C173.063 52.99 173.013 53 172.903 53H172.893C172.193 53 171.523 52.83 170.893 52.5C170.413 52.82 169.813 53 169.183 53C168.593 53 168.063 52.82 167.593 52.47C167.123 52.82 166.583 53 165.983 53C165.303 53 164.723 52.77 164.323 52.46C163.853 52.77 163.083 53 162.213 53H162.203C162.093 53 162.043 52.99 162.043 52.98V51.77H162.203C162.773 51.77 163.293 51.66 163.753 51.44V49.23H164.943V51.46C165.243 51.67 165.583 51.77 165.953 51.77C166.323 51.77 166.653 51.67 166.963 51.47V49.23H168.153V51.47C168.463 51.67 168.793 51.77 169.163 51.77C169.533 51.77 169.873 51.67 170.173 51.46V48.78H171.363V51.45C171.763 51.66 172.333 51.77 172.903 51.77ZM166.893 46.1C166.893 45.74 167.183 45.45 167.553 45.45C167.903 45.45 168.203 45.74 168.203 46.1C168.203 46.46 167.913 46.76 167.553 46.76C167.183 46.76 166.893 46.47 166.893 46.1ZM165.993 47.5C165.993 47.13 166.283 46.84 166.653 46.84C167.013 46.84 167.303 47.13 167.303 47.5C167.303 47.86 167.013 48.15 166.653 48.15C166.283 48.15 165.993 47.86 165.993 47.5ZM167.803 47.5C167.803 47.13 168.103 46.84 168.473 46.84C168.833 46.84 169.113 47.13 169.113 47.5C169.113 47.87 168.833 48.15 168.473 48.15C168.103 48.15 167.803 47.87 167.803 47.5ZM175.646 45.7V51.96C175.046 52.56 174.006 53 172.916 53H172.906C172.796 53 172.746 52.99 172.746 52.98V51.77H172.906C173.466 51.77 174.056 51.66 174.456 51.45V45.7H175.646ZM177.666 53V45.7H178.856V53H177.666ZM8.9364 59.26H9.9778V65H8.8544L5.8204 60.8754V65H4.7708V59.26H5.8942L8.9364 63.3846V59.26ZM15.1212 62.3514V65H14.129V64.549C13.7026 64.9016 13.2188 65.082 12.6694 65.082C11.7264 65.082 11.136 64.5572 11.136 63.7782C11.136 62.9828 11.751 62.499 12.735 62.499H14.129V62.4498C14.129 61.9004 13.7928 61.6134 13.145 61.6134C12.6858 61.6134 12.2348 61.761 11.8002 62.048L11.4804 61.351C12.0462 60.9984 12.7104 60.818 13.3746 60.818C14.4898 60.818 15.1212 61.3756 15.1212 62.3514ZM14.129 64.0078V63.0894H12.9892C12.4398 63.0894 12.12 63.319 12.12 63.7208C12.12 64.1226 12.4316 64.3522 12.9646 64.3522C13.3828 64.3522 13.7682 64.2374 14.129 64.0078ZM18.8492 64.0898L18.9804 64.795C18.6278 64.9836 18.267 65.082 17.9062 65.082C17.0944 65.082 16.5122 64.5654 16.5122 63.6552V61.6954H15.8644V60.9H16.5122V59.7602H17.5044V60.9H18.6688V61.6954H17.5044V63.4994C17.5044 63.9832 17.7996 64.2374 18.2178 64.2374C18.4392 64.2374 18.6524 64.1882 18.8492 64.0898ZM20.9927 59.8586C20.9927 60.1456 20.7467 60.367 20.4515 60.367C20.1481 60.367 19.9021 60.1456 19.9021 59.8586C19.9021 59.5716 20.1481 59.3502 20.4515 59.3502C20.7467 59.3502 20.9927 59.588 20.9927 59.8586ZM20.9517 60.9V65H19.9595V60.9H20.9517ZM26.6028 62.95C26.6274 64.139 25.586 65.1066 24.315 65.082C23.044 65.082 22.0436 64.1554 22.0436 62.95C22.0436 61.7446 23.044 60.818 24.315 60.818C25.586 60.7934 26.6274 61.761 26.6028 62.95ZM23.0276 62.95C23.0276 63.6716 23.5852 64.2292 24.315 64.2292C25.0612 64.2292 25.6188 63.6716 25.6188 62.95C25.6188 62.2284 25.0612 61.6708 24.315 61.6708C23.5852 61.6708 23.0276 62.2284 23.0276 62.95ZM31.8113 62.2776V65H30.8191V62.5646C30.8191 61.9742 30.4911 61.6298 29.9007 61.6298C29.4661 61.6298 28.9987 61.8184 28.6297 62.1464V65H27.6293V60.9H28.6297V61.4166C29.1299 61.0312 29.7367 60.818 30.3189 60.818C31.2455 60.818 31.8113 61.3674 31.8113 62.2776ZM36.7263 62.3514V65H35.7341V64.549C35.3077 64.9016 34.8239 65.082 34.2745 65.082C33.3315 65.082 32.7411 64.5572 32.7411 63.7782C32.7411 62.9828 33.3561 62.499 34.3401 62.499H35.7341V62.4498C35.7341 61.9004 35.3979 61.6134 34.7501 61.6134C34.2909 61.6134 33.8399 61.761 33.4053 62.048L33.0855 61.351C33.6513 60.9984 34.3155 60.818 34.9797 60.818C36.0949 60.818 36.7263 61.3756 36.7263 62.3514ZM35.7341 64.0078V63.0894H34.5943C34.0449 63.0894 33.7251 63.319 33.7251 63.7208C33.7251 64.1226 34.0367 64.3522 34.5697 64.3522C34.9879 64.3522 35.3733 64.2374 35.7341 64.0078ZM38.8717 59.26V65H37.8713V59.26H38.8717ZM47.486 60.3424L46.6004 60.9C46.2478 60.449 45.6984 60.1784 45.108 60.1784C44.0338 60.1784 43.2056 61.0558 43.2056 62.13C43.2056 63.2042 44.0338 64.0816 45.108 64.0816C45.6984 64.0816 46.2314 63.8028 46.6004 63.3436L47.486 63.9176C46.9366 64.6392 46.0592 65.082 45.0998 65.082C43.4762 65.1148 42.0494 63.7208 42.0822 62.13C42.0494 60.5392 43.4762 59.1452 45.0998 59.178C46.0592 59.178 46.9366 59.6208 47.486 60.3424ZM52.8204 62.95C52.845 64.139 51.8036 65.1066 50.5326 65.082C49.2616 65.082 48.2612 64.1554 48.2612 62.95C48.2612 61.7446 49.2616 60.818 50.5326 60.818C51.8036 60.7934 52.845 61.761 52.8204 62.95ZM49.2452 62.95C49.2452 63.6716 49.8028 64.2292 50.5326 64.2292C51.2788 64.2292 51.8364 63.6716 51.8364 62.95C51.8364 62.2284 51.2788 61.6708 50.5326 61.6708C49.8028 61.6708 49.2452 62.2284 49.2452 62.95ZM57.6598 61.4822C58.2256 60.9984 58.7586 60.818 59.39 60.818C60.251 60.818 60.8496 61.3346 60.8496 62.2776V65H59.8492V62.5646C59.8492 61.966 59.5294 61.6298 59.0046 61.6298C58.5536 61.6298 58.1436 61.7774 57.7828 62.0726C57.8238 62.2448 57.8402 62.4416 57.8402 62.6466V65H56.848V62.5646C56.848 61.966 56.52 61.6298 55.9952 61.6298C55.5688 61.6298 55.2326 61.7528 54.839 62.0726V65H53.8386V60.9H54.839V61.4576C55.331 61.0312 55.864 60.818 56.4298 60.818C56.9792 60.818 57.4302 61.0476 57.6598 61.4822ZM66.353 62.95C66.3776 64.1226 65.4756 65.1066 64.3768 65.082C63.8192 65.082 63.3518 64.8688 63.032 64.5162V66.599H62.0316V60.9H63.032V61.3756C63.3518 61.023 63.8192 60.818 64.3768 60.818C65.4756 60.7934 66.3776 61.7774 66.353 62.95ZM65.369 62.95C65.369 62.581 65.2542 62.2776 65.0328 62.0398C64.8114 61.7938 64.5244 61.6708 64.1718 61.6708C63.6798 61.6708 63.2698 61.8758 63.032 62.2284V63.6716C63.2698 64.0242 63.6798 64.2292 64.1718 64.2292C64.5244 64.2292 64.8114 64.1062 65.0328 63.8684C65.2542 63.6224 65.369 63.319 65.369 62.95ZM71.1679 62.3514V65H70.1757V64.549C69.7493 64.9016 69.2655 65.082 68.7161 65.082C67.7731 65.082 67.1827 64.5572 67.1827 63.7782C67.1827 62.9828 67.7977 62.499 68.7817 62.499H70.1757V62.4498C70.1757 61.9004 69.8395 61.6134 69.1917 61.6134C68.7325 61.6134 68.2815 61.761 67.8469 62.048L67.5271 61.351C68.0929 60.9984 68.7571 60.818 69.4213 60.818C70.5365 60.818 71.1679 61.3756 71.1679 62.3514ZM70.1757 64.0078V63.0894H69.0359C68.4865 63.0894 68.1667 63.319 68.1667 63.7208C68.1667 64.1226 68.4783 64.3522 69.0113 64.3522C69.4295 64.3522 69.8149 64.2374 70.1757 64.0078ZM76.4949 62.2776V65H75.5027V62.5646C75.5027 61.9742 75.1747 61.6298 74.5843 61.6298C74.1497 61.6298 73.6823 61.8184 73.3133 62.1464V65H72.3129V60.9H73.3133V61.4166C73.8135 61.0312 74.4203 60.818 75.0025 60.818C75.9291 60.818 76.4949 61.3674 76.4949 62.2776ZM81.5691 60.9L79.7569 65.4018C79.4043 66.2792 78.8877 66.681 78.1333 66.681C77.8135 66.681 77.4445 66.6072 77.0427 66.4596L77.3297 65.7708C77.5757 65.8692 77.7971 65.9184 78.0021 65.9184C78.3875 65.9184 78.6253 65.7298 78.8795 65.2624L78.9451 65.1312L77.1247 60.9H78.1743L79.3879 63.9258L80.5359 60.9H81.5691ZM85.578 60.613V60.9H86.7752V61.6954H85.578V65H84.5776V61.6954H83.9708V60.9H84.5776V60.5966C84.5776 59.6454 85.1844 59.178 86.0372 59.178C86.357 59.178 86.6604 59.2272 86.9556 59.3174L86.808 60.0062C86.6276 59.9488 86.439 59.916 86.2422 59.916C85.8568 59.916 85.578 60.1538 85.578 60.613ZM91.9385 62.95C91.9631 64.139 90.9217 65.1066 89.6507 65.082C88.3797 65.082 87.3793 64.1554 87.3793 62.95C87.3793 61.7446 88.3797 60.818 89.6507 60.818C90.9217 60.7934 91.9631 61.761 91.9385 62.95ZM88.3633 62.95C88.3633 63.6716 88.9209 64.2292 89.6507 64.2292C90.3969 64.2292 90.9545 63.6716 90.9545 62.95C90.9545 62.2284 90.3969 61.6708 89.6507 61.6708C88.9209 61.6708 88.3633 62.2284 88.3633 62.95ZM95.6382 60.818V61.6872C95.0068 61.6872 94.4246 61.9496 93.9654 62.4498V65H92.965V60.9H93.9654V61.6708C94.4328 61.1214 95.0396 60.818 95.6382 60.818ZM104.035 59.26H105.437V65H104.379V60.654L102.206 64.3276H101.813L99.6395 60.6704V65H98.6063V59.26H100.009L102.026 62.6384L104.035 59.26ZM110.951 62.95V63.2616H107.639C107.745 63.9094 108.188 64.2948 108.852 64.2948C109.369 64.2948 109.779 64.1472 110.082 63.8602L110.632 64.3768C110.148 64.8278 109.508 65.082 108.819 65.082C107.565 65.082 106.638 64.1226 106.638 62.9418C106.638 61.761 107.557 60.818 108.795 60.818C110.033 60.818 110.951 61.7282 110.951 62.95ZM107.639 62.6384H109.984C109.984 62.335 109.869 62.089 109.648 61.8922C109.426 61.6872 109.139 61.5888 108.803 61.5888C108.155 61.5888 107.729 61.9824 107.639 62.6384ZM115.74 61.6708L114.978 62.0972C114.723 61.8102 114.395 61.6708 113.985 61.6708C113.288 61.6708 112.739 62.2284 112.739 62.95C112.739 63.6634 113.288 64.2292 113.985 64.2292C114.412 64.2292 114.764 64.0652 115.002 63.77L115.773 64.1964C115.347 64.754 114.691 65.082 113.969 65.082C112.788 65.1066 111.739 64.1062 111.763 62.95C111.739 61.7938 112.788 60.7934 113.969 60.818C114.666 60.818 115.322 61.1378 115.74 61.6708ZM120.938 62.2776V65H119.946V62.5646C119.946 61.9742 119.618 61.6298 119.028 61.6298C118.593 61.6298 118.126 61.8184 117.757 62.1464V65H116.756V59.26H117.757V61.4166C118.257 61.0312 118.864 60.818 119.446 60.818C120.372 60.818 120.938 61.3674 120.938 62.2776ZM125.853 62.3514V65H124.861V64.549C124.435 64.9016 123.951 65.082 123.401 65.082C122.458 65.082 121.868 64.5572 121.868 63.7782C121.868 62.9828 122.483 62.499 123.467 62.499H124.861V62.4498C124.861 61.9004 124.525 61.6134 123.877 61.6134C123.418 61.6134 122.967 61.761 122.532 62.048L122.212 61.351C122.778 60.9984 123.442 60.818 124.107 60.818C125.222 60.818 125.853 61.3756 125.853 62.3514ZM124.861 64.0078V63.0894H123.721C123.172 63.0894 122.852 63.319 122.852 63.7208C122.852 64.1226 123.164 64.3522 123.697 64.3522C124.115 64.3522 124.5 64.2374 124.861 64.0078ZM131.18 62.2776V65H130.188V62.5646C130.188 61.9742 129.86 61.6298 129.27 61.6298C128.835 61.6298 128.368 61.8184 127.999 62.1464V65H126.998V60.9H127.999V61.4166C128.499 61.0312 129.106 60.818 129.688 60.818C130.614 60.818 131.18 61.3674 131.18 62.2776ZM133.438 59.8586C133.438 60.1456 133.192 60.367 132.897 60.367C132.594 60.367 132.348 60.1456 132.348 59.8586C132.348 59.5716 132.594 59.3502 132.897 59.3502C133.192 59.3502 133.438 59.588 133.438 59.8586ZM133.397 60.9V65H132.405V60.9H133.397ZM138.466 61.6708L137.704 62.0972C137.449 61.8102 137.121 61.6708 136.711 61.6708C136.014 61.6708 135.465 62.2284 135.465 62.95C135.465 63.6634 136.014 64.2292 136.711 64.2292C137.138 64.2292 137.49 64.0652 137.728 63.77L138.499 64.1964C138.073 64.754 137.417 65.082 136.695 65.082C135.514 65.1066 134.465 64.1062 134.489 62.95C134.465 61.7938 135.514 60.7934 136.695 60.818C137.392 60.818 138.048 61.1378 138.466 61.6708ZM143.246 62.3514V65H142.254V64.549C141.828 64.9016 141.344 65.082 140.794 65.082C139.851 65.082 139.261 64.5572 139.261 63.7782C139.261 62.9828 139.876 62.499 140.86 62.499H142.254V62.4498C142.254 61.9004 141.918 61.6134 141.27 61.6134C140.811 61.6134 140.36 61.761 139.925 62.048L139.605 61.351C140.171 60.9984 140.835 60.818 141.5 60.818C142.615 60.818 143.246 61.3756 143.246 62.3514ZM142.254 64.0078V63.0894H141.114C140.565 63.0894 140.245 63.319 140.245 63.7208C140.245 64.1226 140.557 64.3522 141.09 64.3522C141.508 64.3522 141.893 64.2374 142.254 64.0078ZM145.392 59.26V65H144.391V59.26H145.392ZM153.284 59.793L152.817 60.6458C152.202 60.3178 151.448 60.1046 150.865 60.1046C150.25 60.1046 149.832 60.3342 149.832 60.8016C149.832 61.105 149.996 61.2362 150.906 61.4822L151.53 61.6544C152.801 62.007 153.391 62.3186 153.424 63.3108C153.424 64.4588 152.505 65.082 151.054 65.082C150.111 65.082 149.152 64.8114 148.43 64.3194L148.922 63.5158C149.603 63.9176 150.447 64.1472 151.144 64.1472C151.841 64.1472 152.3 63.9012 152.3 63.3682C152.3 62.9746 152.079 62.8598 151.259 62.6548L150.611 62.4908C149.25 62.1464 148.709 61.8102 148.676 60.8754C148.676 60.3178 148.889 59.8996 149.307 59.6126C149.726 59.3256 150.275 59.178 150.947 59.178C151.776 59.178 152.637 59.4076 153.284 59.793ZM158.332 60.9L156.52 65.4018C156.167 66.2792 155.651 66.681 154.896 66.681C154.576 66.681 154.207 66.6072 153.806 66.4596L154.093 65.7708C154.339 65.8692 154.56 65.9184 154.765 65.9184C155.15 65.9184 155.388 65.7298 155.642 65.2624L155.708 65.1312L153.888 60.9H154.937L156.151 63.9258L157.299 60.9H158.332ZM162.227 61.269L161.891 61.9168C161.489 61.679 160.956 61.5314 160.522 61.5314C160.071 61.5314 159.849 61.679 159.849 61.9824C159.849 62.2202 159.989 62.3104 160.554 62.4662L161.014 62.5892C161.973 62.8516 162.342 63.1714 162.342 63.7864C162.342 64.6064 161.711 65.082 160.628 65.082C159.931 65.082 159.242 64.8852 158.718 64.5326L159.062 63.9012C159.546 64.1964 160.128 64.3686 160.661 64.3686C161.161 64.3686 161.407 64.1964 161.407 63.8602C161.407 63.6224 161.284 63.5322 160.768 63.3764L160.251 63.237C159.751 63.0976 159.398 62.9418 159.193 62.7696C158.996 62.5974 158.898 62.3678 158.898 62.0726C158.898 61.2854 159.521 60.818 160.546 60.818C161.145 60.818 161.768 60.982 162.227 61.269ZM165.937 64.0898L166.068 64.795C165.715 64.9836 165.354 65.082 164.994 65.082C164.182 65.082 163.6 64.5654 163.6 63.6552V61.6954H162.952V60.9H163.6V59.7602H164.592V60.9H165.756V61.6954H164.592V63.4994C164.592 63.9832 164.887 64.2374 165.305 64.2374C165.527 64.2374 165.74 64.1882 165.937 64.0898ZM170.97 62.95V63.2616H167.657C167.764 63.9094 168.206 64.2948 168.871 64.2948C169.387 64.2948 169.797 64.1472 170.101 63.8602L170.65 64.3768C170.166 64.8278 169.527 65.082 168.838 65.082C167.583 65.082 166.657 64.1226 166.657 62.9418C166.657 61.761 167.575 60.818 168.813 60.818C170.051 60.818 170.97 61.7282 170.97 62.95ZM167.657 62.6384H170.002C170.002 62.335 169.887 62.089 169.666 61.8922C169.445 61.6872 169.158 61.5888 168.821 61.5888C168.174 61.5888 167.747 61.9824 167.657 62.6384ZM175.775 61.4822C176.341 60.9984 176.874 60.818 177.505 60.818C178.366 60.818 178.965 61.3346 178.965 62.2776V65H177.964V62.5646C177.964 61.966 177.645 61.6298 177.12 61.6298C176.669 61.6298 176.259 61.7774 175.898 62.0726C175.939 62.2448 175.955 62.4416 175.955 62.6466V65H174.963V62.5646C174.963 61.966 174.635 61.6298 174.11 61.6298C173.684 61.6298 173.348 61.7528 172.954 62.0726V65H171.954V60.9H172.954V61.4576C173.446 61.0312 173.979 60.818 174.545 60.818C175.094 60.818 175.545 61.0476 175.775 61.4822Z" fill="#36405C"/>
</svg>
