<svg width="48" height="48" viewBox="0 0 48 48" fill="none" xmlns="http://www.w3.org/2000/svg">
<g id="vuesax/linear/profile-2user">
<g id="profile-2user">
<path id="Vector" d="M18.32 21.74C18.12 21.72 17.88 21.72 17.66 21.74C12.9 21.58 9.12 17.68 9.12 12.88C9.12 7.98 13.08 4 18 4C22.9 4 26.88 7.98 26.88 12.88C26.86 17.68 23.08 21.58 18.32 21.74Z" stroke="white" stroke-width="2.5" stroke-linecap="round" stroke-linejoin="round"/>
<path id="Vector_2" d="M32.82 8C36.7 8 39.82 11.14 39.82 15C39.82 18.78 36.82 21.86 33.08 22C32.92 21.98 32.74 21.98 32.56 22" stroke="white" stroke-width="2.5" stroke-linecap="round" stroke-linejoin="round"/>
<path id="Vector_3" d="M8.32 29.12C3.48 32.36 3.48 37.64 8.32 40.86C13.82 44.54 22.84 44.54 28.34 40.86C33.18 37.62 33.18 32.34 28.34 29.12C22.86 25.46 13.84 25.46 8.32 29.12Z" stroke="white" stroke-width="2.5" stroke-linecap="round" stroke-linejoin="round"/>
<path id="Vector_4" d="M36.68 40C38.12 39.7 39.48 39.12 40.6 38.26C43.72 35.92 43.72 32.06 40.6 29.72C39.5 28.88 38.16 28.32 36.74 28" stroke="white" stroke-width="2.5" stroke-linecap="round" stroke-linejoin="round"/>
</g>
</g>
</svg>
