<svg width="32" height="59" viewBox="0 0 32 59" fill="none" xmlns="http://www.w3.org/2000/svg">
<g id="#ffffffff">
<path id="Vector" d="M16.8537 7.70521C21.4885 5.14738 26.0704 2.49442 30.7369 0C31.297 1.87081 31.1094 4.02965 29.8807 5.59923C29.1884 6.6139 28.0575 7.16088 27.0164 7.73956C21.6999 10.7149 16.3675 13.6585 11.0616 16.6523C11.3813 12.9741 13.5772 9.45976 16.8537 7.70521Z" fill="white"/>
<path id="Vector_2" d="M31.7596 2.99644C32.2036 5.20284 32.0767 7.57835 31.0066 9.59185C29.9417 11.6926 28.1898 13.4075 26.1551 14.5701C22.7993 16.433 19.4382 18.2906 16.085 20.1614C14.4995 21.0783 12.9775 22.4867 12.7344 24.3972C11.5242 22.1511 10.7447 19.6276 11.0037 17.0513C12.1557 16.9218 13.1836 16.3564 14.1692 15.783C18.9625 13.0983 23.7664 10.4321 28.5544 7.74218C30.309 6.76714 31.3421 4.90689 31.7596 2.99644Z" fill="white"/>
<path id="Vector_3" d="M4.98179 14.5622C7.57397 12.7495 10.3511 11.2117 13.1441 9.72929C10.8162 12.6439 9.72223 16.5704 10.4859 20.2487C10.6893 21.6518 11.2733 22.9597 11.8837 24.2254C12.9142 26.379 13.8734 28.5669 14.9251 30.7125C15.3532 31.6532 15.8922 32.7313 15.4906 33.7724C14.3596 34.9879 12.6896 35.4873 11.3737 36.465C9.32059 32.3297 7.2331 28.2128 5.20903 24.0643C4.23663 21.9503 3.45448 19.6462 3.60246 17.2865C3.65795 16.2454 4.05959 15.1409 4.98179 14.5622Z" fill="white"/>
<path id="Vector_4" d="M1.00479 22.3414C0.996864 20.5182 1.69181 18.7636 2.6695 17.2469C2.64572 20.1245 3.55734 22.928 4.89175 25.4515C6.79163 29.209 8.56731 33.0352 10.5729 36.7372C9.90172 37.1573 9.07201 37.3713 8.28986 37.16C7.05851 36.8931 6.18916 35.8573 5.63162 34.7897C4.56673 32.652 3.52827 30.5011 2.48453 28.3529C1.5729 26.49 0.917592 24.4395 1.00479 22.3414Z" fill="white"/>
<path id="Vector_5" d="M21.4913 20.719C21.0474 20.2592 21.6763 20.0584 22.0118 19.9738C22.8072 19.6515 23.6845 19.81 24.4561 20.1165C25.4972 20.7718 26.1842 21.8499 26.71 22.936C27.7273 25.0604 28.8001 27.1611 29.8095 29.2909C30.996 31.8408 31.3527 34.8214 30.5415 37.5325C30.2033 38.7005 29.5664 39.7442 28.9481 40.7774C29.0327 38.0293 28.5491 35.2469 27.3706 32.7524C25.4152 28.7386 23.4625 24.7249 21.4913 20.719Z" fill="white"/>
<path id="Vector_6" d="M16.7638 23.1526C17.8868 22.1089 19.3322 21.4985 20.6481 20.7401C22.622 24.775 24.6038 28.81 26.575 32.8475C27.5447 34.8425 28.2688 37.0067 28.3322 39.2421C28.3295 40.4655 28.0547 41.8792 26.9608 42.6059C24.5298 44.4978 21.8768 46.0753 19.2133 47.6079C20.3706 45.9617 21.4302 44.1596 21.6469 42.117C22.1014 39.2844 21.4012 36.4015 20.3918 33.7618C19.2133 31.1617 17.9661 28.5933 16.7717 26.0011C16.3833 25.1238 15.9156 23.9242 16.7638 23.1526Z" fill="white"/>
<path id="Vector_7" d="M19.2875 32.977C20.2018 35.1359 21.0051 37.4347 20.8597 39.8155C20.0115 40.2172 19.1765 40.6452 18.36 41.1077C13.3818 43.9059 8.37444 46.6593 3.39354 49.455C1.63635 50.4485 0.661307 52.3827 0.291372 54.3038C-0.340159 51.8939 0.0720535 49.2515 1.36154 47.1244C2.37622 45.457 3.82161 44.0618 5.48895 43.0525C9.00333 41.0971 12.523 39.1444 16.0294 37.1679C17.6149 36.2747 18.9863 34.832 19.2875 32.977Z" fill="white"/>
<path id="Vector_8" d="M4.40558 49.9333C9.90703 46.8945 15.3504 43.7448 20.8862 40.7695C20.7355 44.6987 18.4287 48.5196 14.917 50.3323C10.3008 52.8795 5.75584 55.5589 1.10259 58.0322C0.785503 56.5551 0.669238 54.9934 1.17393 53.5454C1.75262 51.9943 2.93377 50.6863 4.40558 49.9333Z" fill="white"/>
</g>
</svg>
