<svg width="18" height="18" viewBox="0 0 18 18" fill="none" xmlns="http://www.w3.org/2000/svg">
<path d="M12.1425 1.5H5.8575C3.1275 1.5 1.5 3.1275 1.5 5.8575V12.135C1.5 14.8725 3.1275 16.5 5.8575 16.5H12.135C14.865 16.5 16.4925 14.8725 16.4925 12.1425V5.8575C16.5 3.1275 14.8725 1.5 12.1425 1.5ZM10.3425 11.25C10.56 11.4675 10.56 11.8275 10.3425 12.045C10.23 12.1575 10.0875 12.21 9.945 12.21C9.8025 12.21 9.66 12.1575 9.5475 12.045L6.9 9.3975C6.6825 9.18 6.6825 8.82 6.9 8.6025L9.5475 5.955C9.765 5.7375 10.125 5.7375 10.3425 5.955C10.56 6.1725 10.56 6.5325 10.3425 6.75L8.0925 9L10.3425 11.25Z" fill="#56908C"/>
</svg>
