<svg width="32" height="32" viewBox="0 0 32 32" fill="none" xmlns="http://www.w3.org/2000/svg">
<g id="vuesax/bold/whatsapp">
<g id="whatsapp">
<path id="Vector" d="M29.3066 15.2134C28.8533 7.48006 21.8266 1.52007 13.7333 2.8534C8.15997 3.7734 3.69332 8.29338 2.82665 13.8667C2.31998 17.0934 2.98668 20.1467 4.44001 22.6667L3.25333 27.08C2.98666 28.08 3.90663 28.9867 4.8933 28.7067L9.23998 27.5067C11.2133 28.6667 13.52 29.3334 15.9866 29.3334C23.5066 29.3334 29.7466 22.7067 29.3066 15.2134ZM22.5067 20.9601C22.3867 21.2001 22.24 21.4267 22.0533 21.6401C21.72 22.0001 21.36 22.2667 20.96 22.4267C20.56 22.6001 20.12 22.6801 19.6533 22.6801C18.9733 22.6801 18.24 22.5201 17.48 22.1867C16.7066 21.8534 15.9467 21.4134 15.1867 20.8667C14.4133 20.3067 13.6933 19.6801 13 19.0001C12.3067 18.3067 11.6933 17.5734 11.1333 16.8134C10.5866 16.0534 10.1467 15.2934 9.82665 14.5334C9.50665 13.7734 9.34667 13.0401 9.34667 12.3467C9.34667 11.8934 9.42666 11.4534 9.58666 11.0534C9.74666 10.6401 10 10.2667 10.36 9.9334C10.7867 9.50673 11.2533 9.30673 11.7467 9.30673C11.9333 9.30673 12.12 9.34673 12.2933 9.42673C12.4666 9.50673 12.6267 9.62673 12.7467 9.80006L14.2933 11.9867C14.4133 12.16 14.5066 12.3067 14.56 12.4534C14.6266 12.6 14.6533 12.7334 14.6533 12.8667C14.6533 13.0267 14.6 13.1867 14.5067 13.3467C14.4133 13.5067 14.2933 13.6667 14.1333 13.8267L13.6266 14.36C13.5466 14.44 13.52 14.5201 13.52 14.6267C13.52 14.6801 13.5333 14.7334 13.5466 14.7867C13.5733 14.84 13.5867 14.8801 13.6 14.9201C13.72 15.1467 13.9333 15.4267 14.2266 15.7734C14.5333 16.12 14.8534 16.48 15.2 16.8267C15.56 17.1867 15.9067 17.5067 16.2667 17.8134C16.6133 18.1067 16.9066 18.3067 17.1333 18.4267C17.1733 18.4401 17.2133 18.4667 17.2533 18.48C17.3067 18.5067 17.36 18.5067 17.4267 18.5067C17.5467 18.5067 17.6267 18.4667 17.7067 18.3867L18.2133 17.8801C18.3866 17.7067 18.5467 17.5867 18.6933 17.5067C18.8533 17.4134 19 17.36 19.1733 17.36C19.3067 17.36 19.44 17.3867 19.5867 17.4534C19.7333 17.52 19.8933 17.6001 20.0533 17.7201L22.2667 19.2934C22.44 19.4134 22.56 19.5601 22.64 19.7201C22.7066 19.8934 22.7467 20.0534 22.7467 20.24C22.6667 20.4667 22.6133 20.7201 22.5067 20.9601Z" fill="#36405C" fill-opacity="0.25"/>
</g>
</g>
</svg>
